<svg width="119" height="19" viewBox="0 0 119 19" fill="none" xmlns="http://www.w3.org/2000/svg">
<g clip-path="url(#clip0_107_3)">
<path fill-rule="evenodd" clip-rule="evenodd" d="M9.81247 14.0549L4.04482 17.8343L5.8569 11.1811L0.480225 6.86358L7.36779 6.531L9.81247 0.083313L12.2571 6.531L19.1447 6.86358L13.768 11.1811L15.5801 17.8343L9.81247 14.0549Z" fill="#FFC54F"/>
</g>
<g clip-path="url(#clip1_107_3)">
<path fill-rule="evenodd" clip-rule="evenodd" d="M34.4375 14.0549L28.6698 17.8343L30.4819 11.1811L25.1052 6.86358L31.9928 6.531L34.4375 0.083313L36.8821 6.531L43.7697 6.86358L38.393 11.1811L40.2051 17.8343L34.4375 14.0549Z" fill="#FFC54F"/>
</g>
<g clip-path="url(#clip2_107_3)">
<path fill-rule="evenodd" clip-rule="evenodd" d="M59.0625 14.0549L53.2948 17.8343L55.1069 11.1811L49.7302 6.86358L56.6178 6.531L59.0625 0.083313L61.5071 6.531L68.3947 6.86358L63.018 11.1811L64.8301 17.8343L59.0625 14.0549Z" fill="#FFC54F"/>
</g>
<g clip-path="url(#clip3_107_3)">
<path fill-rule="evenodd" clip-rule="evenodd" d="M83.6875 14.0549L77.9198 17.8343L79.7319 11.1811L74.3552 6.86358L81.2428 6.531L83.6875 0.083313L86.1321 6.531L93.0197 6.86358L87.643 11.1811L89.4551 17.8343L83.6875 14.0549Z" fill="#FFC54F"/>
</g>
<g clip-path="url(#clip4_107_3)">
<path fill-rule="evenodd" clip-rule="evenodd" d="M108.312 14.0549L102.545 17.8343L104.357 11.1811L98.9802 6.86358L105.868 6.531L108.312 0.083313L110.757 6.531L117.645 6.86358L112.268 11.1811L114.08 17.8343L108.312 14.0549Z" fill="#FFC54F"/>
</g>
<defs>
<clipPath id="clip0_107_3">
<rect width="19.625" height="17.9896" fill="white" transform="translate(0 0.083313)"/>
</clipPath>
<clipPath id="clip1_107_3">
<rect width="19.625" height="17.9896" fill="white" transform="translate(24.625 0.083313)"/>
</clipPath>
<clipPath id="clip2_107_3">
<rect width="19.625" height="17.9896" fill="white" transform="translate(49.25 0.083313)"/>
</clipPath>
<clipPath id="clip3_107_3">
<rect width="19.625" height="17.9896" fill="white" transform="translate(73.875 0.083313)"/>
</clipPath>
<clipPath id="clip4_107_3">
<rect width="19.625" height="17.9896" fill="white" transform="translate(98.5 0.083313)"/>
</clipPath>
</defs>
</svg>
